<?xml version="1.0" standalone="no"?><!DOCTYPE svg PUBLIC "-//W3C//DTD SVG 1.1//EN" "http://www.w3.org/Graphics/SVG/1.1/DTD/svg11.dtd"><svg t="1651935402226" class="icon" viewBox="0 0 1024 1024" version="1.1" xmlns="http://www.w3.org/2000/svg" p-id="9166" id="mx_n_1651935402227" data-spm-anchor-id="a313x.7781069.0.i6" xmlns:xlink="http://www.w3.org/1999/xlink" width="200" height="200"><defs><style type="text/css">@font-face { font-family: feedback-iconfont; src: url("//at.alicdn.com/t/font_1031158_u69w8yhxdu.woff2?t=1630033759944") format("woff2"), url("//at.alicdn.com/t/font_1031158_u69w8yhxdu.woff?t=1630033759944") format("woff"), url("//at.alicdn.com/t/font_1031158_u69w8yhxdu.ttf?t=1630033759944") format("truetype"); }
</style></defs><path d="M679.342159 167.446124c24.139131-24.139131 24.139131-63.275594 0-87.414725-24.137071-24.139131-63.275594-24.139131-87.412666 0l-18.104348 18.104348V63.099393C573.825145 29.420813 547.419622 0.950813 513.753404 0.025713 478.822128-0.932352 450.203783 27.098792 450.203783 61.81373v36.322017l-18.104349-18.104348c-24.137071-24.139131-63.275594-24.139131-87.412665 0-24.139131 24.139131-24.139131 63.275594 0 87.414725l105.517014 105.517014v80.061315a41.207121 41.207121 0 0 1-16.985576 33.33656l-46.246751 33.600287a41.207121 41.207121 0 0 1-36.954546 5.853471l-61.351222-19.933944-67.746567-132.958896c-15.495938-30.414976-52.714209-42.511326-83.137426-27.011268-30.417036 15.497998-42.509266 52.71833-27.011268 83.135366l11.624529 22.812262-41.450243-13.468547c-32.46709-10.555204-67.340677 7.219488-77.885579 39.684518-10.549023 32.46709 7.217427 67.336556 39.684518 77.885578l41.452303 13.468548-21.648161 11.031146c-30.691064 15.638102-43.836135 53.968966-27.800384 84.453994 11.035267 20.980606 32.493875 33.037809 54.747781 33.035749a61.584042 61.584042 0 0 0 28.0126-6.749727l132.958896-67.746566 60.904125 19.789719a41.207121 41.207121 0 0 1 26.457032 26.457032l21.926309 67.478721a41.203 41.203 0 0 1-5.853472 36.954546l-42.377403 58.328679-147.387569 23.343834c-33.715666 5.340443-56.719541 37.001934-51.379099 70.719661 5.342503 33.717727 36.989572 56.727783 70.719661 51.381158l25.28675-4.005332-24.876739 34.241057c-19.938065 27.441882-15.042659 66.291956 12.048962 86.703903a61.538714 61.538714 0 0 0 37.166763 12.463094c19.111863 0 37.96206-8.838927 50.05635-25.482484l25.618466-35.260933 4.005333 25.28675c4.817112 30.4397 31.092833 52.147611 60.967995 52.147611 3.214155 0 6.473639-0.251363 9.745484-0.770573 33.715666-5.340443 56.719541-37.001934 51.381159-70.719661l-23.343834-147.385509 63.695907-87.668149 21.372073-123.621362a28.673975 28.673975 0 0 1-27.386252-19.818565l-9.595078-29.533143a28.676035 28.676035 0 0 1 10.41922-32.065321l25.121921-18.252695a28.678096 28.678096 0 0 1 33.715667 0l0.859168 0.624288 61.233781-108.314977-0.154526-0.111259a41.207121 41.207121 0 0 1-16.985575-33.336561v-80.061315z" fill="#0061b2" p-id="9167" data-spm-anchor-id="a313x.7781069.0.i5" class=""></path><path d="M1020.969793 378.074262c-10.546963-32.46503-45.414368-50.23148-77.885579-39.684518l-41.450242 13.468547 11.039387-21.664643c15.291963-30.011146 4.68525-67.369522-24.897342-83.475325-30.689003-16.707427-68.906547-4.722336-84.666211 26.205668l-67.746567 132.958896-61.351221 19.933945a41.207121 41.207121 0 0 1-36.954546-5.853472l-46.092225-33.489027c-40.56841 20.261541-64.792016 63.106645-61.233782 108.314977l24.262753 17.628407a28.680156 28.680156 0 0 1 10.41922 32.065321l-9.595078 29.533143a28.682216 28.682216 0 0 1-27.277053 19.818565h-30.942427a164.257764 164.257764 0 0 0-21.372073 123.621362h73.575314l63.695907 87.668149-23.343834 147.385509c-5.340443 33.717727 17.663432 65.379218 51.381159 70.719661a62.222752 62.222752 0 0 0 9.745484 0.770573c29.873102 0 56.150883-21.709972 60.974176-52.149672l4.005332-25.286749 25.618467 35.260933c12.09429 16.647677 30.942427 25.482483 50.05635 25.482483 12.949338 0 26.022297-4.056841 37.197668-12.487818 27.066897-20.420189 31.94582-59.249659 12.015997-86.679178l-24.876739-34.238997 25.286749 4.005332c33.732149 5.344564 65.379218-17.663432 70.719661-51.381158s-17.663432-65.377157-51.381159-70.719661l-147.387569-23.343834-42.377403-58.328679a41.207121 41.207121 0 0 1-5.853471-36.954546l21.926309-67.478721a41.207121 41.207121 0 0 1 26.457031-26.457032l60.904125-19.789719 132.958896 67.746566a61.551076 61.551076 0 0 0 28.0126 6.749727c22.253906 0 43.718695-12.059264 54.751902-33.04193 16.02957-30.485028 2.880378-68.813831-27.808626-84.449873l-21.64404-11.029086 41.452303-13.468548c32.46503-10.549023 50.23148-45.420549 39.680397-77.885578z" fill="#1296db" p-id="9168" data-spm-anchor-id="a313x.7781069.0.i3" class=""></path></svg>